<?xml version="1.0" encoding="utf-8"?>
<svg version="1.1" xmlns:xlink="http://www.w3.org/1999/xlink" width="10px" height="14px" xmlns="http://www.w3.org/2000/svg">
  <g transform="matrix(1 0 0 1 -26 -28 )">
    <path d="M 9 12.6768010575017  L 9 1.18440185062789  L 1 1.18440185062789  L 1 12.6768010575017  L 4.3046875 8.92002643754131  L 5 8.13350958360872  L 5.6953125 8.92002643754131  L 9 12.6768010575017  Z M 0.90625 0  L 9.09375 0  C 9.21354166666667 0  9.328125 0.0277594183740915  9.4375 0.0832782551222744  C 9.609375 0.163472130425202  9.74609375 0.289931703018285  9.84765625 0.46265697290152  C 9.94921875 0.635382242784754  10 0.826613791584048  10 1.0363516192994  L 10 12.9636483807006  C 10 13.173386208416  9.94921875 13.3646177572152  9.84765625 13.5373430270985  C 9.74609375 13.7100682969817  9.609375 13.8365278695748  9.4375 13.9167217448777  C 9.33854166666667 13.9660718219872  9.22395833333333 13.990746860542  9.09375 13.990746860542  C 8.84375 13.990746860542  8.62760416666667 13.892046706323  8.4453125 13.694646397885  L 5 9.77131526768011  L 1.5546875 13.694646397885  C 1.3671875 13.8982154659617  1.15104166666667 14  0.90625 14  C 0.786458333333333 14  0.671875 13.9722405816259  0.5625 13.9167217448777  C 0.390625 13.8365278695748  0.25390625 13.7100682969817  0.15234375 13.5373430270985  C 0.05078125 13.3646177572152  0 13.173386208416  0 12.9636483807006  L 0 1.0363516192994  C 0 0.826613791584048  0.05078125 0.635382242784754  0.15234375 0.46265697290152  C 0.25390625 0.289931703018285  0.390625 0.163472130425202  0.5625 0.0832782551222744  C 0.671875 0.0277594183740915  0.786458333333333 0  0.90625 0  Z " fill-rule="nonzero" fill="#f2f2f2" stroke="none" transform="matrix(1 0 0 1 26 28 )" />
  </g>
</svg>