<?xml version="1.0" encoding="utf-8"?>
<svg version="1.1" xmlns:xlink="http://www.w3.org/1999/xlink" width="116px" height="28px" xmlns="http://www.w3.org/2000/svg">
  <g transform="matrix(1 0 0 1 -380 -6 )">
    <path d="M 380.5 9  A 2.5 2.5 0 0 1 383 6.5 L 493 6.5  A 2.5 2.5 0 0 1 495.5 9 L 495.5 31  A 2.5 2.5 0 0 1 493 33.5 L 383 33.5  A 2.5 2.5 0 0 1 380.5 31 L 380.5 9  Z " fill-rule="nonzero" fill="#ffffff" stroke="none" />
    <path d="M 380.5 9  A 2.5 2.5 0 0 1 383 6.5 L 493 6.5  A 2.5 2.5 0 0 1 495.5 9 L 495.5 31  A 2.5 2.5 0 0 1 493 33.5 L 383 33.5  A 2.5 2.5 0 0 1 380.5 31 L 380.5 9  Z " stroke-width="1" stroke="#0079fe" fill="none" />
  </g>
</svg>