<?xml version="1.0" encoding="utf-8"?>
<svg version="1.1" xmlns:xlink="http://www.w3.org/1999/xlink" width="122px" height="34px" xmlns="http://www.w3.org/2000/svg">
  <defs>
    <filter x="377px" y="3px" width="122px" height="34px" filterUnits="userSpaceOnUse" id="filter4">
      <feOffset dx="0" dy="0" in="SourceAlpha" result="shadowOffsetInner" />
      <feGaussianBlur stdDeviation="1.5" in="shadowOffsetInner" result="shadowGaussian" />
      <feComposite in2="shadowGaussian" operator="atop" in="SourceAlpha" result="shadowComposite" />
      <feColorMatrix type="matrix" values="0 0 0 0 0  0 0 0 0 0.474509803921569  0 0 0 0 0.996078431372549  0 0 0 0.8 0  " in="shadowComposite" />
    </filter>
    <g id="widget5">
      <path d="M 380.5 9  A 2.5 2.5 0 0 1 383 6.5 L 493 6.5  A 2.5 2.5 0 0 1 495.5 9 L 495.5 31  A 2.5 2.5 0 0 1 493 33.5 L 383 33.5  A 2.5 2.5 0 0 1 380.5 31 L 380.5 9  Z " fill-rule="nonzero" fill="#ffffff" stroke="none" />
      <path d="M 380.5 9  A 2.5 2.5 0 0 1 383 6.5 L 493 6.5  A 2.5 2.5 0 0 1 495.5 9 L 495.5 31  A 2.5 2.5 0 0 1 493 33.5 L 383 33.5  A 2.5 2.5 0 0 1 380.5 31 L 380.5 9  Z " stroke-width="1" stroke="#0079fe" fill="none" />
    </g>
  </defs>
  <g transform="matrix(1 0 0 1 -377 -3 )">
    <use xlink:href="#widget5" filter="url(#filter4)" />
    <use xlink:href="#widget5" />
  </g>
</svg>