<?xml version="1.0" encoding="utf-8"?>
<svg version="1.1" xmlns:xlink="http://www.w3.org/1999/xlink" width="306px" height="46px" xmlns="http://www.w3.org/2000/svg">
  <defs>
    <filter x="133px" y="-3px" width="306px" height="46px" filterUnits="userSpaceOnUse" id="filter2">
      <feOffset dx="0" dy="0" in="SourceAlpha" result="shadowOffsetInner" />
      <feGaussianBlur stdDeviation="1.5" in="shadowOffsetInner" result="shadowGaussian" />
      <feComposite in2="shadowGaussian" operator="atop" in="SourceAlpha" result="shadowComposite" />
      <feColorMatrix type="matrix" values="0 0 0 0 0  0 0 0 0 0.474509803921569  0 0 0 0 0.996078431372549  0 0 0 0.8 0  " in="shadowComposite" />
    </filter>
    <g id="widget3">
      <path d="M 136.5 3  A 2.5 2.5 0 0 1 139 0.5 L 433 0.5  A 2.5 2.5 0 0 1 435.5 3 L 435.5 37  A 2.5 2.5 0 0 1 433 39.5 L 139 39.5  A 2.5 2.5 0 0 1 136.5 37 L 136.5 3  Z " fill-rule="nonzero" fill="#ffffff" stroke="none" />
      <path d="M 136.5 3  A 2.5 2.5 0 0 1 139 0.5 L 433 0.5  A 2.5 2.5 0 0 1 435.5 3 L 435.5 37  A 2.5 2.5 0 0 1 433 39.5 L 139 39.5  A 2.5 2.5 0 0 1 136.5 37 L 136.5 3  Z " stroke-width="1" stroke="#0079fe" fill="none" />
    </g>
  </defs>
  <g transform="matrix(1 0 0 1 -133 3 )">
    <use xlink:href="#widget3" filter="url(#filter2)" />
    <use xlink:href="#widget3" />
  </g>
</svg>