<?xml version="1.0" encoding="utf-8"?>
<svg version="1.1" xmlns:xlink="http://www.w3.org/1999/xlink" width="300px" height="40px" xmlns="http://www.w3.org/2000/svg">
  <g transform="matrix(1 0 0 1 -136 0 )">
    <path d="M 137 3  A 2 2 0 0 1 139 1 L 433 1  A 2 2 0 0 1 435 3 L 435 37  A 2 2 0 0 1 433 39 L 139 39  A 2 2 0 0 1 137 37 L 137 3  Z " fill-rule="nonzero" fill="#ffffff" stroke="none" />
    <path d="M 136.5 3  A 2.5 2.5 0 0 1 139 0.5 L 433 0.5  A 2.5 2.5 0 0 1 435.5 3 L 435.5 37  A 2.5 2.5 0 0 1 433 39.5 L 139 39.5  A 2.5 2.5 0 0 1 136.5 37 L 136.5 3  Z " stroke-width="1" stroke="#cccccc" fill="none" stroke-opacity="0.698039215686274" />
  </g>
</svg>