<?xml version="1.0" encoding="utf-8"?>
<svg version="1.1" xmlns:xlink="http://www.w3.org/1999/xlink" width="10px" height="7px" xmlns="http://www.w3.org/2000/svg">
  <g transform="matrix(1 0 0 1 -129 -26 )">
    <path d="M 9.814453125 5.67534722222222  C 9.93815104166667 5.8292824074074  10 6.01157407407407  10 6.22222222222222  C 10 6.43287037037037  9.93815104166667 6.61516203703704  9.814453125 6.76909722222222  C 9.69075520833333 6.92303240740741  9.54427083333333 7  9.375 7  L 0.625 7  C 0.455729166666667 7  0.309244791666667 6.92303240740741  0.185546875 6.76909722222222  C 0.0618489583333333 6.61516203703704  0 6.43287037037037  0 6.22222222222222  C 0 6.01157407407407  0.0618489583333333 5.8292824074074  0.185546875 5.67534722222222  L 4.560546875 0.230902777777778  C 4.68424479166667 0.0769675925925917  4.83072916666667 0  5 0  C 5.16927083333333 0  5.31575520833333 0.0769675925925917  5.439453125 0.230902777777778  L 9.814453125 5.67534722222222  Z " fill-rule="nonzero" fill="#7f7f7f" stroke="none" transform="matrix(1 0 0 1 129 26 )" />
  </g>
</svg>